Normalized EMG Linear Envelopes
nRows=262
nColumns=4

endheader
time	 med_gas_r	  soleus_r	 tib_ant_r	
0	  0.014839	  0.024802	 -0.032288	
0.0332661	  0.017650	  0.072171	 -0.009898	
0.0665323	  0.020073	  0.112802	  0.009683	
0.0997984	  0.021991	  0.142617	  0.024794	
0.133065	  0.023572	  0.160967	  0.035278	
0.166331	  0.025057	  0.169649	  0.041906	
0.199597	  0.026562	  0.171313	  0.045616	
0.232863	  0.028092	  0.168451	  0.047163	
0.266129	  0.029672	  0.163194	  0.047129	
0.299395	  0.031425	  0.157379	  0.046042	
0.332661	  0.033460	  0.152444	  0.044391	
0.365927	  0.035707	  0.149208	  0.042612	
0.399194	  0.037861	  0.147816	  0.041061	
0.43246	  0.039509	  0.147913	  0.039998	
0.465726	  0.040323	  0.148922	  0.039560	
0.498992	  0.040189	  0.150318	  0.039739	
0.532258	  0.039213	  0.151919	  0.040422	
0.565524	  0.037630	  0.154058	  0.041461	
0.59879	  0.035681	  0.157372	  0.042689	
0.632056	  0.033546	  0.162180	  0.043898	
0.665323	  0.031364	  0.167882	  0.044844	
0.698589	  0.029306	  0.172999	  0.045326	
0.731855	  0.027596	  0.175952	  0.045287	
0.765121	  0.026427	  0.175950	  0.044811	
0.798387	  0.025839	  0.173294	  0.044053	
0.831653	  0.025677	  0.169017	  0.043148	
0.864919	  0.025685	  0.164346	  0.042202	
0.898185	  0.025674	  0.160401	  0.041323	
0.931452	  0.025634	  0.158069	  0.040626	
0.964718	  0.025687	  0.157878	  0.040193	
0.997984	  0.025931	  0.159892	  0.040024	
1.03125	  0.026315	  0.163741	  0.040033	
1.06452	  0.026667	  0.168782	  0.040087	
1.09778	  0.026853	  0.174278	  0.040060	
1.13105	  0.026920	  0.179526	  0.039878	
1.16431	  0.027084	  0.183991	  0.039540	
1.19758	  0.027551	  0.187394	  0.039111	
1.23085	  0.028306	  0.189641	  0.038683	
1.26411	  0.029081	  0.190602	  0.038316	
1.29738	  0.029554	  0.189964	  0.038001	
1.33065	  0.029604	  0.187389	  0.037704	
1.36391	  0.029428	  0.182883	  0.037426	
1.39718	  0.029379	  0.176970	  0.037229	
1.43044	  0.029674	  0.170471	  0.037149	
1.46371	  0.030209	  0.164103	  0.037107	
1.49698	  0.030641	  0.158329	  0.036924	
1.53024	  0.030645	  0.153542	  0.036451	
1.56351	  0.030147	  0.150263	  0.035724	
1.59677	  0.029343	  0.148984	  0.034971	
1.63004	  0.028511	  0.149795	  0.034484	
1.66331	  0.027805	  0.152214	  0.034453	
1.69657	  0.027194	  0.155415	  0.034897	
1.72984	  0.026578	  0.158613	  0.035693	
1.7631	  0.025955	  0.161274	  0.036650	
1.79637	  0.025477	  0.163091	  0.037552	
1.82964	  0.025328	  0.163951	  0.038222	
1.8629	  0.025548	  0.163977	  0.038578	
1.89617	  0.025952	  0.163513	  0.038673	
1.92944	  0.026227	  0.162934	  0.038641	
1.9627	  0.026147	  0.162356	  0.038613	
1.99597	  0.025728	  0.161538	  0.038636	
2.02923	  0.025217	  0.160105	  0.038677	
2.0625	  0.024917	  0.157944	  0.038652	
2.09577	  0.024978	  0.155402	  0.038470	
2.12903	  0.025303	  0.153106	  0.038072	
2.1623	  0.025638	  0.151536	  0.037473	
2.19556	  0.025773	  0.150683	  0.036768	
2.22883	  0.025714	  0.150071	  0.036091	
2.2621	  0.025674	  0.149099	  0.035554	
2.29536	  0.025897	  0.147462	  0.035205	
2.32863	  0.026460	  0.145341	  0.035043	
2.3619	  0.027224	  0.143263	  0.035052	
2.39516	  0.027953	  0.141752	  0.035206	
2.42843	  0.028478	  0.141046	  0.035459	
2.46169	  0.028758	  0.141032	  0.035754	
2.49496	  0.028828	  0.141392	  0.036072	
2.52823	  0.028710	  0.141835	  0.036451	
2.56149	  0.028402	  0.142289	  0.036950	
2.59476	  0.027926	  0.142945	  0.037596	
2.62802	  0.027368	  0.144133	  0.038358	
2.66129	  0.026848	  0.146131	  0.039187	
2.69456	  0.026432	  0.149088	  0.040043	
2.72782	  0.026080	  0.153034	  0.040897	
2.76109	  0.025685	  0.157861	  0.041706	
2.79435	  0.025170	  0.163169	  0.042429	
2.82762	  0.024577	  0.168196	  0.043039	
2.86089	  0.024069	  0.172053	  0.043526	
2.89415	  0.023855	  0.174174	  0.043860	
2.92742	  0.024057	  0.174601	  0.043959	
2.96069	  0.024609	  0.173876	  0.043719	
2.99395	  0.025271	  0.172724	  0.043067	
3.02722	  0.025766	  0.171828	  0.041997	
3.06048	  0.025964	  0.171729	  0.040581	
3.09375	  0.025971	  0.172720	  0.038980	
3.12702	  0.026045	  0.174667	  0.037447	
3.16028	  0.026388	  0.176977	  0.036287	
3.19355	  0.026961	  0.178838	  0.035749	
3.22681	  0.027481	  0.179649	  0.035907	
3.26008	  0.027614	  0.179323	  0.036640	
3.29335	  0.027236	  0.178256	  0.037723	
3.32661	  0.026535	  0.176975	  0.038936	
3.35988	  0.025873	  0.175729	  0.040105	
3.39315	  0.025502	  0.174366	  0.041069	
3.42641	  0.025402	  0.172609	  0.041664	
3.45968	  0.025376	  0.170546	  0.041781	
3.49294	  0.025296	  0.168851	  0.041436	
3.52621	  0.025264	  0.168477	  0.040759	
3.55948	  0.025525	  0.169989	  0.039886	
3.59274	  0.026217	  0.173066	  0.038861	
3.62601	  0.027205	  0.176531	  0.037649	
3.65927	  0.028161	  0.178902	  0.036253	
3.69254	  0.028821	  0.179099	  0.034828	
3.72581	  0.029170	  0.176957	  0.033696	
3.75907	  0.029402	  0.173277	  0.033266	
3.79234	  0.029704	  0.169375	  0.033939	
3.8256	  0.030069	  0.166371	  0.036051	
3.85887	  0.030307	  0.164693	  0.039901	
3.89214	  0.030230	  0.164129	  0.045751	
3.9254	  0.029841	  0.164292	  0.053666	
3.95867	  0.029354	  0.165004	  0.063143	
3.99194	  0.029034	  0.166245	  0.072747	
4.0252	  0.028987	  0.167842	  0.080256	
4.05847	  0.029094	  0.169318	  0.083528	
4.09173	  0.029147	  0.170096	  0.081641	
4.125	  0.029073	  0.169864	  0.075445	
4.15827	  0.029027	  0.168748	  0.067032	
4.19153	  0.029265	  0.167195	  0.058576	
4.2248	  0.029890	  0.165732	  0.051421	
4.25806	  0.030719	  0.164850	  0.045936	
4.29133	  0.031398	  0.164962	  0.041922	
4.3246	  0.031680	  0.166255	  0.039068	
4.35786	  0.031596	  0.168443	  0.037146	
4.39113	  0.031368	  0.170699	  0.035988	
4.4244	  0.031149	  0.172014	  0.035423	
4.45766	  0.030861	  0.171782	  0.035279	
4.49093	  0.030265	  0.170119	  0.035437	
4.52419	  0.029215	  0.167697	  0.035860	
4.55746	  0.027838	  0.165327	  0.036576	
4.59073	  0.026495	  0.163671	  0.037606	
4.62399	  0.025570	  0.163119	  0.038882	
4.65726	  0.025261	  0.163684	  0.040206	
4.69052	  0.025510	  0.164902	  0.041284	
4.72379	  0.026083	  0.165974	  0.041841	
4.75706	  0.026723	  0.166266	  0.041748	
4.79032	  0.027273	  0.165802	  0.041088	
4.82359	  0.027727	  0.165316	  0.040096	
4.85685	  0.028185	  0.165753	  0.039025	
4.89012	  0.028738	  0.167630	  0.038056	
4.92339	  0.029348	  0.170712	  0.037303	
4.95665	  0.029824	  0.174145	  0.036873	
4.98992	  0.029929	  0.176897	  0.036856	
5.02319	  0.029544	  0.178230	  0.037243	
5.05645	  0.028787	  0.177981	  0.037869	
5.08972	  0.027967	  0.176523	  0.038479	
5.12298	  0.027429	  0.174434	  0.038890	
5.15625	  0.027352	  0.172128	  0.039079	
5.18952	  0.027670	  0.169738	  0.039125	
5.22278	  0.028137	  0.167295	  0.039080	
5.25605	  0.028487	  0.165004	  0.038928	
5.28931	  0.028590	  0.163320	  0.038671	
5.32258	  0.028485	  0.162776	  0.038399	
5.35585	  0.028303	  0.163686	  0.038255	
5.38911	  0.028140	  0.165932	  0.038303	
5.42238	  0.027984	  0.168911	  0.038476	
5.45565	  0.027749	  0.171714	  0.038651	
5.48891	  0.027372	  0.173506	  0.038784	
5.52218	  0.026894	  0.173878	  0.038932	
5.55544	  0.026465	  0.172917	  0.039159	
5.58871	  0.026254	  0.170943	  0.039439	
5.62198	  0.026335	  0.168205	  0.039662	
5.65524	  0.026653	  0.164833	  0.039744	
5.68851	  0.027084	  0.161004	  0.039706	
5.72177	  0.027526	  0.157038	  0.039641	
5.75504	  0.027933	  0.153295	  0.039631	
5.78831	  0.028281	  0.149984	  0.039671	
5.82157	  0.028535	  0.147117	  0.039677	
5.85484	  0.028641	  0.144639	  0.039547	
5.8881	  0.028550	  0.142629	  0.039222	
5.92137	  0.028250	  0.141378	  0.038724	
5.95464	  0.027788	  0.141271	  0.038145	
5.9879	  0.027261	  0.142508	  0.037589	
6.02117	  0.026787	  0.144886	  0.037124	
6.05444	  0.026474	  0.147837	  0.036750	
6.0877	  0.026382	  0.150728	  0.036447	
6.12097	  0.026500	  0.153180	  0.036222	
6.15423	  0.026751	  0.155153	  0.036135	
6.1875	  0.027028	  0.156765	  0.036250	
6.22077	  0.027228	  0.158084	  0.036565	
6.25403	  0.027298	  0.159140	  0.036976	
6.2873	  0.027249	  0.160094	  0.037324	
6.32056	  0.027159	  0.161289	  0.037489	
6.35383	  0.027130	  0.163032	  0.037464	
6.3871	  0.027231	  0.165306	  0.037371	
6.42036	  0.027450	  0.167716	  0.037407	
6.45363	  0.027710	  0.169740	  0.037759	
6.4869	  0.027940	  0.171048	  0.038542	
6.52016	  0.028163	  0.171613	  0.039723	
6.55343	  0.028501	  0.171642	  0.041094	
6.58669	  0.029069	  0.171463	  0.042300	
6.61996	  0.029825	  0.171428	  0.042994	
6.65323	  0.030505	  0.171728	  0.042995	
6.68649	  0.030749	  0.172149	  0.042360	
6.71976	  0.030343	  0.171997	  0.041296	
6.75302	  0.029401	  0.170403	  0.040035	
6.78629	  0.028319	  0.166839	  0.038756	
6.81956	  0.027541	  0.161480	  0.037612	
6.85282	  0.027301	  0.155133	  0.036746	
6.88609	  0.027524	  0.148833	  0.036270	
6.91935	  0.027909	  0.143389	  0.036198	
6.95262	  0.028119	  0.139167	  0.036444	
6.98589	  0.027960	  0.136177	  0.036880	
7.01915	  0.027469	  0.134295	  0.037412	
7.05242	  0.026869	  0.133441	  0.037991	
7.08569	  0.026437	  0.133585	  0.038564	
7.11895	  0.026359	  0.134652	  0.039028	
7.15222	  0.026642	  0.136459	  0.039250	
7.18548	  0.027122	  0.138721	  0.039149	
7.21875	  0.027560	  0.141138	  0.038745	
7.25202	  0.027760	  0.143520	  0.038140	
7.28528	  0.027648	  0.145932	  0.037445	
7.31855	  0.027283	  0.148717	  0.036749	
7.35181	  0.026802	  0.152246	  0.036140	
7.38508	  0.026345	  0.156476	  0.035721	
7.41835	  0.025991	  0.160695	  0.035586	
7.45161	  0.025753	  0.163787	  0.035762	
7.48488	  0.025616	  0.164890	  0.036182	
7.51815	  0.025580	  0.163932	  0.036717	
7.55141	  0.025639	  0.161643	  0.037217	
7.58468	  0.025712	  0.159098	  0.037552	
7.61794	  0.025621	  0.157223	  0.037634	
7.65121	  0.025189	  0.156527	  0.037448	
7.68448	  0.024411	  0.157060	  0.037083	
7.71774	  0.023528	  0.158421	  0.036713	
7.75101	  0.022935	  0.159876	  0.036517	
7.78427	  0.022945	  0.160682	  0.036594	
7.81754	  0.023582	  0.160500	  0.036935	
7.85081	  0.024549	  0.159527	  0.037472	
7.88407	  0.025399	  0.158203	  0.038128	
7.91734	  0.025803	  0.156786	  0.038814	
7.9506	  0.025728	  0.155272	  0.039394	
7.98387	  0.025394	  0.153702	  0.039712	
8.01714	  0.025062	  0.152442	  0.039678	
8.0504	  0.024831	  0.152072	  0.039339	
8.08367	  0.024622	  0.152969	  0.038864	
8.11694	  0.024338	  0.155035	  0.038444	
8.1502	  0.024020	  0.157798	  0.038199	
8.18347	  0.023851	  0.160723	  0.038162	
8.21673	  0.024004	  0.163363	  0.038297	
8.25	  0.024473	  0.165267	  0.038521	
8.28327	  0.025053	  0.165880	  0.038714	
8.31653	  0.025485	  0.164693	  0.038757	
8.3498	  0.025656	  0.161580	  0.038605	
8.38306	  0.025693	  0.157012	  0.038333	
8.41633	  0.025854	  0.151928	  0.038096	
8.4496	  0.026314	  0.147365	  0.038034	
8.48286	  0.026994	  0.144121	  0.038217	
8.51613	  0.027579	  0.142609	  0.038658	
8.5494	  0.027745	  0.142864	  0.039341	
8.58266	  0.027416	  0.144636	  0.040203	
8.61593	  0.026827	  0.147539	  0.041110	
8.64919	  0.026349	  0.151201	  0.041879	
8.68246	  0.026210	  0.155315	  0.042367	
